<?xml version="1.0" encoding="utf-8"?>
<!-- Generator: Adobe Illustrator 25.2.1, SVG Export Plug-In . SVG Version: 6.00 Build 0)  -->
<svg version="1.1" xmlns="http://www.w3.org/2000/svg" xmlns:xlink="http://www.w3.org/1999/xlink" x="0px" y="0px"
	 viewBox="0 0 486.8 784.1" style="enable-background:new 0 0 486.8 784.1;" xml:space="preserve">
<style type="text/css">
	.st0{fill:none;}
	.st1{fill:#CECCCC;}
	.st2{font-family:'Roboto-Bold';}
	.st3{font-size:11px;}
	.st4{fill:#FCFCFC;}
	.st5{font-size:6px;}
	.st6{display:none;opacity:0.702;}
	.st7{opacity:0.9882;}
	.st8{opacity:0.35;}
	.st9{fill:none;stroke:#CECCCC;stroke-miterlimit:10;}
	.st10{fill:none;stroke:#EFCBCB;stroke-miterlimit:10;}
	.st11{fill:none;stroke:#C83A02;stroke-width:4;stroke-miterlimit:10;}
	.st12{fill:none;stroke:#FFFFFF;stroke-linecap:round;stroke-miterlimit:10;}
	.st13{fill:#FFFFFF;}
	.st14{fill:none;stroke:#FFFFFF;stroke-width:1.1337;stroke-linecap:round;stroke-miterlimit:10;}
</style>
<g id="Capa_0_xA0_Imagen_1_">
	<rect width="486.8" height="784.1"/>
</g>
<g id="peopipi_xA0_Imagen_1_">
	
		<image style="overflow:visible;opacity:0.74;" width="2021" height="3266" id="peopipi_xA0_Imagen" xlink:href="B373DE26.png"  transform="matrix(0.24 0 0 0.24 1.7212 0.2764)">
	</image>
	<g>
		<rect x="138.6" y="82.7" class="st0" width="108.8" height="36"/>
		<text transform="matrix(1 0 0 1 138.6382 91.0301)" class="st1 st2 st3">Vitacura</text>
	</g>
	<g>
		<rect x="280.1" y="162.7" class="st0" width="108.8" height="8.2"/>
		<text transform="matrix(1 0 0 1 280.085 167.3027)" class="st4 st2 st5">Hospital DIPRECA</text>
	</g>
	<rect x="252" y="106.6" class="st0" width="108.8" height="8.2"/>
	<text transform="matrix(1 0 0 1 251.9511 111.2195)" class="st4 st2 st5">Hospital FACH</text>
	<g>
		<rect x="163.9" y="670.7" class="st0" width="108.8" height="8.2"/>
		<text transform="matrix(1 0 0 1 163.9148 675.2883)" class="st4 st2 st5">Planta Aguas Andinas</text>
	</g>
	<g>
		<rect x="150.7" y="199.4" class="st0" width="108.8" height="8.2"/>
		<text transform="matrix(1 0 0 1 150.6839 203.9204)" class="st4 st2 st5">Comisión Chilena de Energía Nuclear</text>
	</g>
	<g>
		<rect x="249.8" y="346.8" class="st0" width="33" height="29.3"/>
		<text transform="matrix(1 0 0 1 249.8342 351.3439)"><tspan x="0" y="0" class="st4 st2 st5">Universidad </tspan><tspan x="0" y="7.2" class="st4 st2 st5">Adolfo </tspan><tspan x="0" y="14.4" class="st4 st2 st5">Ibáñez</tspan></text>
	</g>
	<g>
		<rect x="221.6" y="258" class="st0" width="33" height="29.3"/>
		<text transform="matrix(1 0 0 1 221.5745 262.5259)"><tspan x="0" y="0" class="st4 st2 st5">Hospital </tspan><tspan x="0" y="7.2" class="st4 st2 st5">Militar</tspan></text>
	</g>
	<g>
		<rect x="347.8" y="188.8" class="st0" width="108.8" height="36"/>
		<text transform="matrix(1 0 0 1 347.7658 197.1449)" class="st1 st2 st3">Las Condes</text>
	</g>
	<g>
		<rect x="185.9" y="232.4" class="st0" width="108.8" height="36"/>
		<text transform="matrix(1 0 0 1 185.8934 240.7781)" class="st1 st2 st3">La Reina</text>
	</g>
	<g>
		<rect x="138.6" y="483.1" class="st0" width="108.8" height="36"/>
		<text transform="matrix(1 0 0 1 138.6382 491.4853)" class="st1 st2 st3">La Florida</text>
	</g>
	<g>
		<rect x="94" y="287.2" class="st0" width="108.8" height="36"/>
		<text transform="matrix(1 0 0 1 93.9573 295.5955)" class="st1 st2 st3">Ñuñoa</text>
	</g>
	<g>
		<rect x="65.2" y="216.9" class="st0" width="108.8" height="36"/>
		<text transform="matrix(1 0 0 1 65.2059 225.3227)" class="st1 st2 st3">Providencia</text>
	</g>
	<g>
		<rect x="182.3" y="351.2" class="st0" width="108.8" height="36"/>
		<text transform="matrix(1 0 0 1 182.2977 359.5704)" class="st1 st2 st3">Peñalolén</text>
	</g>
	<g>
		<rect x="152.2" y="642.1" class="st0" width="108.8" height="36"/>
		<text transform="matrix(1 0 0 1 152.2126 650.5065)" class="st1 st2 st3">Puente Alto</text>
	</g>
	<g>
		<rect x="194" y="747.1" class="st0" width="108.8" height="36"/>
		<text transform="matrix(1 0 0 1 193.9929 755.5279)" class="st1 st2 st3">Pirque</text>
	</g>
</g>
<g id="Grupo_1_1_" class="st6">
	<g id="Capa_6_xA0_Imagen_1_" class="st7">
		
			<image style="display:inline;overflow:visible;" width="2174" height="3333" id="Capa_6_xA0_Imagen" xlink:href="B373DE2A.png"  transform="matrix(0.24 0 0 0.24 -16.5188 -7.8836)">
		</image>
	</g>
</g>
<g id="Capa_6">
	<g class="st8">
		<path class="st9" d="M132.9,753"/>
		<path class="st9" d="M352.3,640.5l-7.8,2.6c0,0-4.1,0.5-3.1,4.9s3.4,7.1,3.4,7.1s-2.7,7.8-5.8,8.5c-3.1,0.7-8.2-2-11.6,1
			c-3.4,3.1,0.3,8.2-2,10.2c-2.4,2-6.5,3.4-6.5,3.4l-1.3,1.6c0,0-2.6,0-2.9-0.8c-0.3-0.8-0.6,1.6-1.9,1.1c-1.3-0.5-1.3-3.1-3.1-2.9
			s-3.6-0.6-4.3,0.3c-0.8,0.9-0.6,6.1-0.6,6.1s-4.9,1.9-8,2c-3.1,0.2-4.3-0.1-4.3-0.1s-0.7,0.9-2.5,1.2c0,0-2.8,0.9-5.1-0.4
			c-2.3-1.3-3.2-3.3-3.2-3.3l-4.1,0.4c0,0-12.9,12.3-19,12.4c-6.1,0.1-4.6-4.5-7.9-4.8c-3.3-0.3-13.6,2.5-13.6,2.5
			s-8.3,3.7-11.9,5.4c-3.7,1.7-17.6-1.3-20.2,0c-2.6,1.3-2.6,2.3-2.6,2.3l0.2,7c0,0-0.3,5.1-3.9,4.4c-3.6-0.7-3.8-1.6-3.8-1.6
			s-11.1,1.4-14.6,7.2c-3.4,5.9-8.5,17.4-8.5,17.4s0.5,2.3-2.7,1.9c-3.2-0.4-3.5-2.2-9.4-1c-6,1.2-7.1,5.5-7.1,5.5v3.6
			c0,0-3,3.4-7.7,1.3c-4.8-2.1-4.4-2.8-4.4-2.8l-7.5,4.6l0.1,4.1c0,0-0.2,4-4.9,4.9c-4.8,0.9-5.4,0.7-5.4,0.7s0.4,1-1.9,1
			c-2.3,0-4.6-0.9-4.9-1.5s-1.9,1.3-1.9,1.3l-4.2,0.3l-4.9,1.9c0,0-2.7,2.6-6.6,2s-7.2-3.1-7.2-3.1l-8.9,3.3c0,0-2,1.3-4.7-1.4
			s-4.6-3.6-4.6-3.6l-4.1,0.4l-2,2.3l-4.5,6l-7.7,0.5l-3.8,4.4l-4.2,2.3l-3.1,1.8l-6.9,0.2l-3,3.2l-10.8,3.3L12.5,792"/>
		<path class="st9" d="M55.4,792l3.4-2.4l7.1-23.8l7.8-72.5l-2.7-30l45.3-7.8l-5.1-28.3c0,0-9.5-22.5-8.9-25.9
			c0.7-3.4-3.7-26.9-3.7-26.9l23.1-7.8l5.4-1.7l14.6,7.5l17.7-3.7v-8.9l55.8-15.3l-24.9-32.3h34.7l11.9,6.1l-1.7,5.8l4.4-5.4l3.4-1
			l6.1-5.4l5.4,2.7l5.1-5.4l3.7-1.4l0.9-1.5"/>
		<polyline class="st9" points="69.9,722.3 35.1,722.9 36.8,708.3 31,708.3 35.5,678.8 -10,675.7 		"/>
		<polyline class="st9" points="99.7,572.9 97.3,553 100.5,553 90.5,513 99.1,513 99.5,468.3 94.6,429.3 84.5,429.3 61.2,442 
			40.6,445.6 42.5,454.6 46.7,479.7 47.9,492.3 48.4,501.1 49.1,503.7 58.5,547.9 97.4,535.7 		"/>
		<path class="st9" d="M56.6,544.5l-51.1-6.1l18.2-95.5l16.9,2.7c0,0-16.3-106.2-16-108.3c0.3-2,5.8-1.9,5.8-1.9l27.2-13.8l2.7-4.4
			l2.4,2.9l2.4,9.7c0,0,4.8,24,5.4,25.2c0.7,1.2,5.6,6.8,5.6,6.8l11.4,51.9c0,0,6.1,8.2,6.6,9.2c0.5,1,0.3,6.3,0.3,6.3"/>
		<path class="st9" d="M465.6,360.2c-4.3-20.8-6-17.4-6-17.4s-3.7-4.9-11.4-9.6s-19.8-15.1-19.8-15.1l-26.6,0l-10.7-4.9l-13.9-19
			l-6.1-4.9l-7.4-3.3l-1.8-7l-3.2-4.5l-2.4-5l-2.7-2.8l-2.3-3.4c0,0-9.7-3-10.1-5.7c-0.3-2.7-3.7-4.4-3.7-4.4l-1.9-5.6
			c0,0-8.9-9.4-12.8-10.9c-3.9-1.5-7.7-10.9-7.7-10.9s-13.1-3.6-20.4-4.9c-7.3-1.4-18.6-6.6-19.6-7s-32,5.3-32,5.3l-3.7-11.4
			l-36.4,6.1l-59.7,4.9c0,0-36.7-36.4-40.5-36.4l-5,0.8l-2.6-2.4l-3.2-0.6v-1.7l3.4-16.2h-8.6H82h-4.9c0,0-1.8,3.1-4.6,5.4
			c-2.8,2.3-6.9,2-9.2,4.3s-5.6,12.3-8.2,14.8c-2.6,2.6-13.8,6.9-14.6,8.2s-3.1,14.6-3.1,14.6l-4.6,11.2l24.3,92.9l3.1,3.7l2.4,2.9
			l2.4,9.7c0,0,61.3-5.6,66.1-5.1c4.9,0.5,7.4,1,7.4,1l5.9-1.8l3.8-0.5l15.6-10.5c0,0,10.7-32.4,10.5-41.4
			c-0.3-8.9-6.1-37.8-6.1-37.8l-9.4-3.8l-10.5-5.6l-9.4,14l-11,22l-12.5-6.6l-32.7,6.4v1.8l-9.4,2.8l-2.3-3.3l-26.6,8.4"/>
		<path class="st9" d="M378.1,475.9"/>
		<path class="st9" d="M77.1,162.1c0,0,2.3-3.3,3.6-4.6c1.3-1.3,3.8-3.3,3.8-3.3l-6.6-7.1c0,0-4.3-5.9-7.1-8.4
			c-2.8-2.6-6.6-5.1-6.6-5.1l-8.2-2.6v-4.9c0,0-6.9-3.3-9.7-4.6C43.4,120.3,12,94.7,12,94.7l-8.3-7.1"/>
		<path class="st9" d="M95.6,162.1l7-3.6h7.4l19.9-10h4.6l5.1-2.3l2.6-3.3l104.1-51.6l10-12.8l3.1-5.9l20.7-12.5l-6.4-7.9l-2.4-3.1
			l-7.8-1.4l-12.3,5.1l-7-0.3l0,0l-3.9,0.7l0,0h-5.4l-6.9,1.1c0,0-4.1-1-6.4-3.6s-13.8-16.6-13.8-16.6s-4.6-4.6-8.7-6.6
			c-4.1-2-6.4-1.8-6.4-1.8l-1.5-1c0,0-1.8-1-5.9-3.3c-4.1-2.3-10.5-2.3-10.5-2.3l-6.9-5.7c0,0,0,4.1-3.8,4.3
			c-3.8,0.3-7.7,1.3-7.7,1.3l-4.1-5.1c0,0-3.3-0.8-6.4-1.5s-7.4-2.3-7.4-2.3l-3.8,3.3l-4.9,2.8l-2,2.8c0,0-2.6-0.3-6.4,1.8
			s-7.4,7.1-7.4,7.1l-4.1,4.3l-4.6,5.4l-4.9,3.3l7.4,6.4l1,18.4l-1.5,0.5l-4.3,9.2l2,6.1l-1.8,2.8l-6.1,5.1c0,0-1.8,3.3,0.8,9.4
			c2.6,6.1,4.1,10.2,2,13c-2,2.8-10.5,14-10.5,14s-2.6,3.8-3.3,7.7c-0.8,3.8-1.8,16.6-1.8,16.6v3.8"/>
		<path class="st9" d="M90,417l45.1,1.2l5.1,2.6l3.1-1.9l37.3,1.9h1.3h20.7h30.9l1.5,1.8l2.6-1.5h5.6l29.9-12.1c0,0,6.8-0.5,9.1-1.8
			c2.3-1.3,15.8-15,15.8-15l4.3-1.1l2-1.3h5.1v-1h3.2l1.4-1c0,0,1.9-2.4,9.8-2.9c7.9-0.5,6.8-1,6.8-1l0.1-2.2c0,0-0.3-2,2.9-2.2
			c3.2-0.1,9.3,4.2,9.3,4.2l5-0.3c0,0,0.3,2.2,1.4,2.9c1.1,0.8,3.6,0,3.6,0l2.7,0.1l1.3,2.6l1.3-1.1c0,0,5.2,1.9,6.5-0.8
			c1.3-2.7,2.3-3.3,2.3-3.3l2.3-2.8l1.7-0.6l1.7-2l1.7-2.9c0,0,3.3,1.7,5,0s1.1-3.8,1.1-3.8s4.1,0,6-0.8c1.9-0.8,2.9,0,2.9,0l2-1.3
			l3.7,1.1l5-5.1l0.6-2.4l2-0.6h1.9l2.8,1l1.5-1c0,0-0.3-0.9,3.4,1.5c3.7,2.4,4.2,3.4,4.2,3.4l2.3-0.3l4.6,2c0,0,8.6,1.5,9.7,1
			c1.1-0.5,3.4,0.1,3.4,0.1l2.2-2.3l2-0.1l1-1.8l1.1-0.4l1.8-0.5l2.4-1.3l1.9-1.7h2.2v-1.1h3.1c0,0-0.6-0.8,1.7-1.4c2.3-0.6,7,0,7,0
			l1,0.9l0.8-1.2"/>
		<path class="st9" d="M163.9,313c0,0-6.4,42.6-5.9,46.4s0,6.2,0,6.2l-13.5,28.1c0,0-5.9,15.3-5.1,21.2s0.8,5.9,0.8,5.9"/>
		<line class="st9" x1="143.4" y1="218.7" x2="148.3" y2="224.4"/>
		<line class="st9" x1="36.5" y1="234.3" x2="0" y2="224.4"/>
		<path class="st9" d="M172.1,285l20.6,8.1H218l13.5,2.6l6.6-3.3l20.9,5.4c0,0,1.5-0.3,2.6-1.3c1-1,0-7.7,0-7.7l2.1-5.7l97.1-3.7"/>
		<path class="st9" d="M460.6,606.4"/>
		<path class="st9" d="M352.3,640.5c0,0,3.1-1.7,8-6.6c4.9-4.9,7.1-7.1,7.1-7.1l7.9-2.3c0,0,3.3,3.1,5.6,2.3
			c2.3-0.8,4.6-3.6,4.6-3.6v-4.3c0,0,0.3-5.9,2.3-5.9c2,0,8.4,6.1,11.2,6.1c2.8,0,7.1-2,7.1-2s16.3-0.8,19.1-2.8
			c2.8-2,2.6-6.1,2.6-6.1s-8.4-16.1-6.9-16.9c1.5-0.8,8.2,1.5,8.2,1.5s10.2,1.3,11.7-0.5c1.5-1.8,3.3-6.4,5.6-7.9c0,0,7-5.1,14-3.6
			c7.1,1.5,8.9,2.2,8.9,2.2l4.2-3.4c0,0,5.3,2.2,9.2,1.4c3.9-0.8,3.9-1.4,3.9-1.4"/>
		<line class="st9" x1="138.6" y1="10.2" x2="128.2" y2="0"/>
		<path class="st9" d="M280.1,60.3l13.5-6.1h11.2l14.3-9.4h6.6l5.6-6.9l8.7-1l1.3,1.8l9.4-1.8l1.3,1.5L358,35l7.4,1.5v14.6
			c0,0-4.3,0.5-5.9,4.3c-1.5,3.8-3.3,11.5-3.3,11.5s-1.3,9.4,2.3,13.5s5.6,5.7,5.6,5.7s0.5,5.7,1.3,8.6s3.6,7.7,3.6,7.7
			s3.4,5.5,5.1,6c1.8,0.5,7.6,2.4,8.9,1.4c1.3-1,5.8-0.3,5.8-0.3s12.8-0.7,18.4,0.3c5.6,1.1,18.7,3.7,18.7,3.7s4.9,10.8,6.1,12.6
			c1.3,1.8,0,7.5,0,7.5s0.6,6.3-0.7,7.8c-1.3,1.5,2,7.5,2,7.5l-1,4.4l2,7.1l3.1,7.8c0,0,4.4,7.1,6.5,8.2c2,1,8.1,8.5,10.9,8.5
			s12.6,4.8,12.6,4.8l0.1,11.1v7.1l7.7,14.3v4.1v4.3l-3.1,2.8c0,0-1.5,4.6,0,6.1c1.5,1.5,8.4,9.4,8.4,9.4s-1.5,6.1-1.3,7.7
			c0.3,1.5,3.1,15.1,3.1,15.1s-2.8,12.5-3.8,13.3s-5.9,0-5.9,0s-5.9,9.4-4.9,12.5c1,3.1,6.1,14.3,6.1,14.3l-2.6,10.2
			c0,0-1.8,7.1,0.3,7.9c2,0.8,6.4,1.8,6.4,1.8l4.3,0.8v2.6c0,0-0.8,2.3,0,2.6s5.1-3.3,6.4-4.3c0,0,4.1,1.5,5.9,0.3
			c1.8-1.3,5.4-2.6,7.4-2.6c2,0,7.9,1.3,7.9,1.3"/>
		<path class="st9" d="M471.6,330.1l-5.4,2c0,0-0.3,3.1-1.5,5.6c-1.3,2.6-5,5-5,5"/>
		<line class="st9" x1="5.5" y1="538.4" x2="4.1" y2="547.7"/>
		<line class="st9" x1="23.7" y1="442.9" x2="3.8" y2="438.9"/>
		<path class="st9" d="M24.6,337.4c0,0-2.4-0.9-8.5,0c-6.1,0.9-12.4,0-12.4,0"/>
		<path class="st9" d="M269.8,410.2l-8.5,10.6l4.3,25.5h22.3v16.9l-38.2-2v18.4h-15.4l10.1,7.7c0,0,2.4-4.1,5.3,2
			c3,6.1,3.5,11.9,3.5,11.9l-3.5,8.5l-5.3,3.6l-8.8,10.9"/>
		<path class="st9" d="M263.7,508.1l4.6,8.2v35.2h-16.9V577h-5.1v26.6l8.7,8.7l2.3,15.3l16.6,8.2c0,0,1-4.6,9.7-7.1
			c8.7-2.6,15.8-5.6,15.8-5.6l24.5,0.5l6.6-2.6l15.8-0.5v5.6l5-0.5l6.3-4.2l6.3-7c0,0-2.6-11.9,1.4-16.2c3.9-4.3,26.9-2.6,26.9-2.6
			l12.8-5.3l6.5-5.1l8.7-20.3l13.1-1.4l9.9-0.5l3.9-10.9l4.4-1.5l3.6,8.5l5.3,6.8l8.9-3.4l8.5,4.3c0,0,2.7,2.7,8,2.6"/>
		<path class="st9" d="M486.8,571.9l-14.6,3.1c0,0-6.3-3.4-11.7-5.4s-10.2,0.9-10.2,0.9s-4.8-2.1-7.8-1.6c-3.1,0.6-7.3,6.2-7.3,6.2
			l-10,3.9l-5.8,7.1c0,0-0.2,7-4.3,9.7c-4.1,2.7-8.9,6.6-11.7,7.5c-2.9,0.9-17.7-3.7-17.7-3.7l-6.6,0.2c0,0,1.4,9.9-1.5,10.4
			s-1.2,1.7-1.2,1.7l-7-1.4l-5.5,1.4"/>
	</g>
	<polyline class="st10" points="346.5,626 341.4,629.9 341.4,643.4 341.4,648 	"/>
</g>
<g id="Capa_7">
</g>
<g id="Capa_8">
	<polyline class="st11" points="299.5,783.1 279.8,705.9 279.8,692.3 	"/>
	<path class="st11" d="M280.9,686.1l0.2-48.8c0,0-9.7-22.7-10.8-28.5s-5.7-0.9,0-19.5c5.7-18.6,10.8-30.2,10.8-30.2l-0.2-10.6
		c0,0,6.1-28.2,4.4-31.6"/>
	<path class="st11" d="M316.6,449.9c0,0-10.2,37.6-14,43.3c-3.7,5.7-12.6,14.6-12.6,14.6l-4.5,7.3l-4.7,1.8c0,0-5.1,9.5-5,10.9
		s0,8.2,0,8.2l3.4,10.9l1.6,1.7"/>
	<path class="st11" d="M265.2,427.1l2.3,15.4l5.2,12.1c0,0,2.1,16.7,3.2,19.2c1.1,2.6,0,15.4,0,15.4v5l3.4,4.9l-2.3,6.2l0.7,6.5
		l-1.8,16"/>
	<path class="st11" d="M313.1,429.1c0,0-5.4,18.4-6.8,19.1c-1.4,0.7-13.8,12.6-13.8,12.6l-9.5,7.2l-6.3,11.6"/>
	<polyline class="st11" points="302.3,391 304,396.1 313.1,411.4 324.7,425.4 	"/>
	<polyline class="st11" points="302.3,364.8 305,367.5 306,376.9 310.4,386.2 	"/>
	<polyline class="st11" points="292.4,329 296.2,337.5 296.2,342.6 297.8,347.7 295,351.5 295.1,360.4 296.2,369.9 297.8,371.9 	"/>
	<polyline class="st11" points="297.8,282.7 298.9,288.3 295.1,293.3 295.1,299.4 297.8,306.8 298.9,312.3 300.9,320.8 304,329 
		304,333.2 306.3,345.3 308,350.5 	"/>
	<path class="st11" d="M221.6,93.1c0,0,7.8,20.4,10.9,23.8c3.1,3.4,5.8,18,5.8,18l2.7,17l5.4,13.7l7.5,14.6l11.1,9.6l10.5,5.6
		l6.8,6.1c0,0,6.1,18.1,6.5,22.3s0,17.5,0,17.5l-2.7,11.6l0.7,11.2l4.1,5.7l1.7,4.8v9.5"/>
	<line class="st11" x1="248.5" y1="149.3" x2="249.4" y2="171.8"/>
	<polyline class="st11" points="264.9,175 267.8,182 267.8,191.5 	"/>
	<g>
		<g>
			<polyline class="st12" points="260.9,173.6 260.9,165.4 277.4,165.4 			"/>
			<g>
				<path class="st13" d="M262.4,173.6c0,0.8-0.7,1.5-1.5,1.5c-0.8,0-1.5-0.7-1.5-1.5s0.7-1.5,1.5-1.5
					C261.7,172.1,262.4,172.8,262.4,173.6z"/>
			</g>
		</g>
	</g>
	<g>
		<g>
			<polyline class="st12" points="232,117.3 232,109.1 248.5,109.1 			"/>
			<g>
				<circle class="st13" cx="232" cy="117.2" r="1.5"/>
			</g>
		</g>
	</g>
	<g>
		<g>
			<line class="st14" x1="249.7" y1="673" x2="229.3" y2="673"/>
			<g>
				<path class="st13" d="M249.6,671.4c0.9,0,1.7,0.7,1.7,1.7c0,0.9-0.7,1.7-1.7,1.7c-0.9,0-1.7-0.7-1.7-1.7
					C247.9,672.1,248.7,671.4,249.6,671.4z"/>
			</g>
		</g>
	</g>
	<g>
		<g>
			<polyline class="st12" points="271.7,194.2 271.7,202.4 255.2,202.4 			"/>
			<g>
				<circle class="st13" cx="271.7" cy="194.3" r="1.5"/>
			</g>
		</g>
	</g>
	<g>
		<g>
			<line class="st12" x1="293.5" y1="357.2" x2="279.4" y2="357.2"/>
			<g>
				<circle class="st13" cx="293.4" cy="357.2" r="1.5"/>
			</g>
		</g>
	</g>
	<g>
		<g>
			<line class="st12" x1="259.6" y1="263.9" x2="245.5" y2="263.9"/>
			<g>
				<circle class="st13" cx="259.5" cy="263.9" r="1.5"/>
			</g>
		</g>
	</g>
</g>
</svg>
